<?xml version="1.0" standalone="no"?>
<!DOCTYPE svg PUBLIC "-//W3C//DTD SVG 20010904//EN"
 "http://www.w3.org/TR/2001/REC-SVG-20010904/DTD/svg10.dtd">
<svg version="1.0" xmlns="http://www.w3.org/2000/svg"
 width="952.000000pt" height="952.000000pt" viewBox="0 0 952.000000 952.000000"
 preserveAspectRatio="xMidYMid meet">
<metadata>
Created by potrace 1.14, written by Peter Selinger 2001-2017
</metadata>
<g transform="translate(0.000000,952.000000) scale(0.100000,-0.100000)"
fill="#000000" stroke="none">
<path d="M4889 9516 c-2 -2 -42 -7 -89 -10 -126 -9 -236 -23 -355 -46 -27 -5
-65 -12 -82 -15 -18 -3 -63 -12 -100 -21 -38 -9 -75 -17 -83 -19 -8 -2 -41
-11 -74 -20 -32 -9 -64 -18 -70 -19 -33 -6 -223 -70 -233 -78 -7 -6 -13 -8
-13 -5 0 5 -79 -24 -145 -52 -149 -65 -299 -136 -380 -179 -88 -48 -343 -203
-370 -225 -5 -4 -41 -31 -80 -58 -65 -47 -113 -84 -155 -119 -121 -101 -175
-150 -285 -263 -174 -177 -232 -244 -352 -407 -34 -47 -66 -89 -70 -95 -72
-90 -313 -517 -313 -552 0 -7 -4 -13 -10 -13 -5 0 -10 -6 -10 -14 0 -7 -13
-42 -29 -77 -62 -136 -161 -428 -186 -547 -2 -9 -10 -46 -19 -82 -8 -36 -18
-81 -21 -100 -3 -19 -8 -42 -10 -50 -8 -26 -33 -211 -40 -288 -21 -232 -21
-468 0 -687 10 -115 12 -129 18 -160 3 -16 9 -50 12 -75 3 -25 8 -56 11 -70 3
-14 7 -38 10 -55 3 -16 7 -37 10 -45 3 -8 8 -28 11 -45 2 -16 14 -61 24 -100
11 -38 22 -78 24 -87 10 -47 98 -296 135 -384 78 -186 267 -542 292 -552 4 -2
8 -8 8 -14 0 -12 61 -102 72 -106 4 -2 8 -8 8 -13 0 -11 110 -155 193 -254 63
-74 231 -250 288 -300 122 -107 339 -278 386 -303 12 -7 27 -18 35 -24 7 -7
49 -40 93 -73 203 -151 309 -290 341 -445 21 -101 20 -351 -2 -915 -17 -437
-17 -442 36 -546 66 -128 225 -226 466 -289 38 -9 43 -14 53 -54 6 -24 13 -61
17 -83 34 -227 63 -307 135 -373 77 -71 100 -74 498 -75 l355 0 41 26 c85 54
149 176 171 329 3 25 8 52 9 60 2 8 4 31 4 50 2 50 10 58 71 65 165 19 252 55
319 132 28 32 78 124 86 158 21 94 25 139 25 295 0 149 -4 210 -24 405 -14
136 -17 165 -21 215 -4 53 -9 93 -21 190 -3 25 -7 92 -9 149 -4 124 9 170 66
234 57 66 151 111 483 233 123 45 203 82 326 152 233 132 444 283 625 446 367
333 633 686 846 1122 29 60 54 114 55 119 1 6 13 36 28 67 14 31 26 60 26 63
0 4 7 21 15 38 16 34 122 353 129 390 3 12 9 37 15 56 6 19 8 37 6 42 -3 4 -1
10 4 13 5 3 12 27 16 53 5 27 9 53 11 58 16 72 35 173 40 216 3 30 8 56 10 60
1 3 6 39 10 80 3 40 8 77 10 80 1 3 6 57 11 120 13 205 8 599 -11 744 -9 67
-19 151 -22 175 -1 14 -3 25 -4 25 -1 0 -3 9 -4 20 -2 11 -7 40 -11 65 -5 25
-9 50 -10 55 0 6 -5 28 -9 50 -5 22 -10 47 -11 55 -10 54 -69 271 -95 350 -18
52 -33 100 -34 105 -1 6 -4 15 -7 20 -4 6 -12 28 -19 50 -13 43 -14 44 -88
215 -51 117 -126 265 -169 332 -12 21 -23 40 -23 43 0 17 -261 392 -289 415
-3 3 -30 34 -60 70 -60 73 -265 278 -326 327 -22 17 -66 53 -98 78 -67 54
-277 197 -277 189 0 -3 -12 3 -28 14 -74 53 -394 197 -484 218 -5 1 -10 3 -13
4 -3 1 -8 3 -12 4 -30 8 -131 38 -143 43 -8 4 -18 6 -21 5 -4 -1 -22 3 -40 9
-19 5 -50 12 -69 15 -19 3 -38 8 -41 10 -4 2 -28 6 -55 9 -26 4 -51 8 -55 11
-4 2 -34 7 -66 10 -64 7 -98 11 -98 14 0 8 -638 23 -646 16z m411 -130 c147
-7 230 -16 320 -32 8 -1 33 -5 56 -9 165 -24 405 -93 609 -175 73 -29 306
-144 330 -163 6 -4 57 -39 115 -76 58 -38 114 -78 125 -88 11 -10 43 -36 70
-58 137 -109 289 -265 448 -460 4 -5 30 -41 58 -80 27 -38 56 -78 64 -88 8 -9
15 -19 15 -21 0 -3 18 -32 40 -65 22 -33 40 -63 40 -67 0 -4 6 -15 14 -23 23
-26 159 -298 209 -417 40 -94 119 -317 133 -372 2 -9 11 -42 19 -72 9 -30 18
-66 21 -80 2 -14 7 -31 9 -39 5 -11 15 -58 41 -186 8 -39 14 -72 18 -106 3
-19 7 -47 10 -64 5 -27 12 -89 21 -185 33 -320 21 -719 -31 -1025 -8 -49 -17
-106 -20 -125 -3 -19 -7 -43 -10 -52 -3 -9 -7 -27 -10 -40 -2 -13 -6 -32 -9
-43 -2 -11 -6 -30 -9 -42 -15 -71 -81 -302 -96 -338 -5 -11 -23 -60 -40 -110
-73 -210 -219 -507 -332 -678 -21 -32 -38 -60 -38 -63 0 -8 -132 -187 -205
-279 -114 -143 -278 -313 -410 -425 -27 -24 -52 -46 -55 -49 -14 -17 -217
-166 -300 -220 -52 -33 -99 -64 -105 -68 -66 -50 -378 -197 -550 -259 -326
-117 -428 -192 -477 -351 -12 -40 -27 -73 -33 -73 -5 0 -26 4 -45 10 -19 5
-51 12 -70 15 -19 3 -42 8 -50 10 -8 2 -28 7 -45 10 -16 2 -41 7 -55 10 -13 2
-42 7 -65 11 -22 3 -42 7 -44 10 -3 3 -17 78 -56 309 -2 17 -14 77 -26 135
-12 58 -22 114 -24 125 -2 11 -8 38 -13 60 -6 22 -14 54 -17 72 -3 17 -14 71
-26 120 -12 48 -22 95 -24 103 -2 8 -13 53 -25 100 -12 47 -23 93 -25 102 -2
9 -11 43 -20 75 -16 57 -16 62 3 115 11 31 17 59 14 62 -3 3 1 6 8 6 7 0 11 3
7 6 -3 4 0 22 8 41 8 18 33 89 56 156 51 151 157 455 169 482 5 11 20 54 35
95 14 41 30 83 36 92 5 10 9 22 9 27 0 5 5 22 12 38 6 15 12 30 12 33 2 8 47
132 56 155 14 34 53 160 50 160 -2 0 2 10 9 23 7 13 14 31 16 41 2 10 12 49
24 87 23 79 67 255 75 299 3 17 8 41 11 55 3 14 8 43 11 65 3 22 8 51 11 65 9
40 11 273 3 295 -4 11 -15 45 -24 76 -19 65 -74 146 -121 176 -49 32 -124 55
-190 57 -190 8 -340 -119 -450 -379 -21 -49 -39 -91 -40 -93 -1 -1 -23 30 -48
70 -72 115 -145 194 -222 238 -60 35 -88 42 -181 45 -175 6 -286 -105 -285
-286 0 -37 15 -120 35 -199 19 -72 137 -388 187 -497 18 -40 40 -91 44 -103 2
-6 11 -28 70 -165 52 -121 67 -157 70 -165 1 -3 7 -18 13 -33 7 -16 12 -30 12
-33 0 -2 9 -24 21 -48 11 -25 22 -51 23 -58 2 -7 6 -20 9 -28 10 -26 69 -194
73 -210 2 -8 13 -42 25 -75 11 -33 22 -64 23 -70 2 -5 6 -17 9 -25 8 -20 87
-273 92 -297 2 -10 18 -65 35 -123 l31 -105 -96 -280 c-52 -154 -97 -287 -99
-295 -5 -17 -94 -277 -103 -300 -8 -20 -73 -202 -77 -215 -2 -5 -8 -23 -14
-38 -7 -15 -15 -39 -18 -52 -5 -22 -12 -25 -53 -26 -140 -2 -354 -14 -451 -25
-25 -2 -63 -6 -85 -9 -22 -2 -65 -7 -95 -10 l-56 -7 -2 33 c-2 32 -25 126 -39
159 -3 8 -7 17 -7 20 -5 19 -70 130 -77 130 -5 0 -9 5 -9 11 0 30 -164 186
-305 290 -33 24 -61 47 -63 52 -2 4 -10 7 -17 7 -7 0 -15 3 -17 8 -1 4 -51 45
-110 90 -59 46 -113 88 -120 95 -8 7 -43 36 -78 66 -124 104 -314 302 -433
451 -62 77 -239 341 -258 383 -5 12 -19 38 -31 57 -20 34 -121 230 -124 240 0
3 -10 27 -22 53 -12 27 -22 51 -22 53 0 2 -9 23 -19 47 -85 188 -191 587 -217
817 -4 30 -8 69 -10 85 -23 190 -23 580 0 715 5 28 14 92 22 160 3 24 7 47 10
51 2 4 6 27 9 50 3 24 10 60 15 79 5 19 12 49 15 67 3 18 9 42 14 55 5 13 9
25 9 28 0 3 5 25 11 50 77 297 249 690 426 970 43 69 82 127 85 130 4 3 22 28
40 55 138 205 396 480 630 671 105 85 94 77 160 124 30 22 60 43 65 47 61 49
285 183 440 262 183 95 543 239 665 266 8 2 47 13 85 24 39 11 81 22 95 25 14
3 45 10 70 16 25 6 56 13 70 15 14 1 43 8 65 13 22 6 65 14 95 17 30 4 58 9
61 11 4 2 35 6 70 10 35 3 80 7 99 9 19 3 103 7 185 11 83 3 151 7 153 9 1 1
17 1 35 -1 17 -1 88 -5 157 -8z m-198 -3330 c46 -20 81 -56 109 -113 22 -43
24 -60 23 -178 0 -71 -4 -146 -8 -165 -3 -19 -9 -51 -11 -70 -5 -36 -12 -71
-15 -80 -1 -3 -2 -8 -1 -12 0 -3 -6 -27 -13 -52 -8 -25 -12 -46 -10 -46 2 0
-1 -12 -7 -27 -6 -16 -12 -35 -14 -43 -6 -31 -26 -106 -35 -130 -5 -14 -18
-59 -30 -100 -12 -41 -25 -84 -30 -95 -4 -11 -27 -74 -50 -140 -36 -102 -81
-229 -136 -375 -38 -102 -93 -256 -155 -434 -38 -110 -71 -201 -73 -204 -3 -2
-10 16 -16 39 -6 24 -15 55 -19 69 -5 14 -26 79 -46 145 -20 66 -41 129 -45
140 -5 11 -12 31 -16 45 -21 77 -230 635 -278 744 -68 153 -193 454 -218 524
-60 173 -88 310 -75 364 16 62 81 100 162 93 127 -9 211 -84 326 -286 41 -72
82 -139 92 -150 20 -22 65 -25 90 -6 13 10 43 106 62 197 17 84 88 211 148
269 79 75 212 111 289 77z m-461 -2743 c1 -17 9 -51 24 -113 9 -36 18 -74 20
-85 2 -11 15 -69 29 -130 15 -60 28 -123 31 -140 3 -16 14 -73 25 -125 20 -99
54 -293 65 -368 3 -25 2 -42 -3 -39 -4 3 -40 9 -78 12 -38 4 -80 8 -94 11 -14
2 -74 7 -135 10 -60 3 -128 7 -150 9 -22 2 -50 3 -62 4 l-22 1 30 83 c17 45
57 159 90 252 33 94 75 213 93 265 40 111 87 251 91 265 1 6 7 23 13 38 7 16
12 35 12 43 0 14 19 20 21 7z m-116 -1097 c33 -3 87 -8 120 -10 33 -3 76 -8
95 -10 19 -3 69 -10 110 -16 41 -6 91 -13 110 -15 19 -3 46 -7 60 -10 14 -3
41 -8 60 -11 19 -2 43 -7 52 -10 9 -3 27 -7 40 -9 13 -3 34 -7 48 -10 14 -3
34 -7 45 -9 77 -15 105 -27 106 -49 3 -78 20 -261 25 -266 2 -2 -1 -11 -5 -20
-9 -16 -56 -18 -426 -12 -33 0 -67 1 -75 0 -67 -1 -700 27 -805 36 -33 3 -98
7 -145 10 -47 3 -110 7 -140 10 -30 2 -82 7 -115 10 -33 3 -89 8 -125 11 -36
4 -77 7 -92 8 -15 1 -31 6 -35 9 -4 4 -6 54 -4 110 2 56 3 125 4 154 1 58 1
58 93 68 27 3 65 8 84 11 46 7 105 12 220 19 52 4 96 8 98 10 5 5 531 -3 597
-9z m-950 -511 c22 -2 76 -7 120 -10 44 -4 100 -8 125 -10 25 -2 83 -6 130 -9
47 -3 115 -8 153 -11 64 -5 134 -9 357 -20 168 -8 469 -17 705 -20 265 -3 241
-2 242 -17 1 -7 4 -58 8 -113 14 -191 16 -180 -30 -182 -88 -4 -929 -3 -1055
2 -230 7 -412 15 -490 20 -41 2 -120 7 -175 10 -166 9 -237 15 -245 20 -4 3
-6 24 -5 47 2 24 5 99 6 168 1 69 4 128 6 132 3 6 57 4 148 -7z m-59 -480 c49
-3 121 -8 159 -10 371 -26 795 -38 1318 -38 407 1 447 -1 448 -16 5 -67 3
-130 -3 -149 -5 -13 -4 -21 1 -18 10 7 -2 -53 -23 -114 -31 -89 -91 -144 -191
-173 -75 -21 -938 -16 -1210 8 -254 22 -406 78 -518 190 -42 42 -82 95 -71 95
3 0 0 7 -7 16 -9 11 -14 50 -16 112 -2 93 1 117 16 108 4 -3 48 -8 97 -11z
m624 -651 c47 -4 247 -7 445 -8 313 -1 360 -3 359 -16 0 -8 -4 -40 -9 -70 -5
-30 -10 -59 -10 -65 -1 -5 -7 -35 -15 -65 -30 -124 -73 -182 -148 -198 -58
-13 -540 -3 -593 13 -50 14 -88 36 -108 62 -23 29 -56 128 -66 195 -3 23 -10
67 -15 97 -14 76 -15 74 33 67 23 -3 80 -9 127 -12z"/>
</g>
</svg>
