<svg version="1.2" xmlns="http://www.w3.org/2000/svg" viewBox="0 0 192 251" width="192" height="251">
	<title>DONT WORRY_gadget-ai</title>
	<defs>
		<clipPath clipPathUnits="userSpaceOnUse" id="cp1">
			<path d="m1233.58 250.1h-1462.31v-916.98h1462.31z"/>
		</clipPath>
	</defs>
	<style>
		tspan { white-space:pre } 
		.s0 { fill: #fcfcfc } 
		.s1 { fill: #000000 } 
	</style>
	<g id="Background">
	</g>
	<g id="Object">
		<path id="&lt;Compound Path&gt;" class="s0" d="m52.6 186.3c22.1 7.6 46.6 6.2 68.3 0 21-6 41-17.2 54.5-33.9 12.9-16 18.3-36.2 15.5-56.7-2.6-19.4-11.6-37.9-23.7-53.7-1.9-4-4.3-7.8-7.5-11.1-8.5-8.6-20.1-13.3-31.2-17.4-11-4-22.1-8-33.5-10.6-22.7-5.3-45.2-2.8-63 11.8-18.3 15.1-27.2 37.6-30 60.6-5 41.1 3.8 94.8 50.6 111z"/>
	</g>
	<g id="Object">
		<g id="&lt;Clip Group&gt;" clip-path="url(#cp1)">
			<g id="&lt;Group&gt;">
				<g id="&lt;Group&gt;">
					<g id="&lt;Group&gt;">
						<g id="&lt;Group&gt;">
							<g id="&lt;Group&gt;">
								<path id="&lt;Path&gt;" class="s1" d="m97.5 233.6c-6.1-0.1-12.1 0.2-18.2-0.2-4.7-0.3-10.2-0.6-14.2-3.2-1.8-1.2-3.6-2.9-4.3-4.9-0.6-2-0.2-4.2-0.1-6.2 0.4-5.8 0.4-11.7 0.5-17.6 0.2-5 0.5-10.2-1.9-14.7-2.1-4-5.6-6.9-9.1-9.5-8.2-6-15.7-12.1-21.8-20.3-11.9-15.8-18.2-35.5-17.2-55.3 1.1-20.5 9.6-40.6 23.6-55.7 13.9-15.1 33.1-25 53.3-28.5 21-3.6 43.8-0.1 60.5 13.8 31.2 25.9 37.1 74.4 20.4 109.9-8.4 18.1-23 33.2-41.2 41.5-4.3 2-9.1 3-13.1 5.4-4.2 2.4-5.4 6.3-5 11 0.5 6.2 1.1 12.4 1.5 18.7 0.3 4.3 1.6 11.8-2.7 14.5-3.1 2.1-7.5 1.3-11 1.3-2.1-0.1-2.1 3.2 0 3.2 3.8 0.1 7.8 0.5 11.4-1 4.2-1.8 5.6-6 5.8-10.3 0.4-6.1-0.5-12.5-1.1-18.6-0.2-3.2-0.8-6.4-0.8-9.5-0.1-3.3 1.3-5.4 4.1-6.9 4.4-2.3 9.4-3.5 13.9-5.6 4.7-2.3 9.1-5 13.2-8.1 8.2-6 15.2-13.4 20.9-21.7 23.4-34.5 22.2-85.3-5.1-117.3-6.1-7.2-13.6-13.3-22.1-17.5-10.4-5.1-22.1-7.3-33.8-7.3-21.4-0.1-42.8 7.1-59.8 20.1-16.8 12.9-28.9 31.5-33.8 52.2-4.7 20.2-2.3 41.4 7 59.9 4.5 9.1 10.6 17.5 18 24.5 3.7 3.5 7.6 6.4 11.7 9.3 4.1 3 8.6 6.3 10.3 11.3 0.9 2.8 0.8 5.8 0.8 8.7q-0.2 5-0.3 10c-0.1 3.1-0.1 6.3-0.3 9.4-0.1 2.1-0.4 4.1-0.2 6.2 1.4 9.6 13.3 11.4 21 12 6.4 0.5 12.8 0.2 19.2 0.2 2.1 0.1 2.1-3.2 0-3.2z"/>
							</g>
						</g>
						<g id="&lt;Group&gt;">
							<g id="&lt;Group&gt;">
								<path id="&lt;Path&gt;" class="s1" d="m60.5 196.8c16.4-2.6 33.1-1.9 49.3 2.2 2 0.5 2.8-2.7 0.8-3.2-16.7-4.1-34-4.9-51-2.2-2 0.4-1.2 3.5 0.9 3.2z"/>
							</g>
						</g>
						<g id="&lt;Group&gt;">
							<g id="&lt;Group&gt;">
								<path id="&lt;Path&gt;" class="s1" d="m60 207.9q26 2.6 52.2 2.5c2.1 0 2.1-3.3 0-3.3q-26.2 0.2-52.2-2.4c-2.1-0.2-2 3 0 3.2z"/>
							</g>
						</g>
						<g id="&lt;Group&gt;">
							<g id="&lt;Group&gt;">
								<path id="&lt;Path&gt;" class="s1" d="m61.4 220.2q25.7 2 51.6 1.2c2-0.1 2.1-3.3 0-3.3q-25.9 0.8-51.6-1.1c-2.1-0.2-2.1 3.1 0 3.2z"/>
							</g>
						</g>
						<g id="&lt;Group&gt;">
							<g id="&lt;Group&gt;">
								<path id="&lt;Path&gt;" class="s1" d="m71.1 235.7c1.3 3.6 0.9 7.6 2.8 10.9 2.1 3.8 6.4 3.7 10.3 3.9 2.7 0 5.3 0.2 7.9 0.2 1.9 0 3.8-0.1 5.4-1.1 4.1-2.5 4.4-8.6 5-12.8 0.3-2.1-2.8-3-3.1-0.9-0.4 2.1-0.6 4.2-1.1 6.2-0.4 1.7-1 4-2.7 4.8-1.5 0.7-3.3 0.6-4.9 0.5-2.2 0-4.3-0.1-6.5-0.2-3.1-0.1-6.6 0.3-7.9-3.1-1.2-2.9-1-6.3-2.1-9.3-0.7-1.9-3.8-1.1-3.1 0.9z"/>
							</g>
						</g>
						<g id="&lt;Group&gt;">
							<g id="&lt;Group&gt;">
								<path id="&lt;Path&gt;" class="s1" d="m82.1 193.8c6.6-17.7 12.2-35.7 18.7-53.5 3.4-9.1 6.8-18.2 8.4-27.9 1-5.8 1.2-14.7-6.3-16.3-9.3-1.9-13.3 8.4-15 15.4q1.5-0.2 3-0.4c-3.5-5.2-6.3-12.6-13.8-12.3-2.6 0.1-5.2 1.4-6.1 4-1.3 3.3 0.1 7.5 1.2 10.8 2.8 8.3 6.9 16.3 10 24.6q4.7 12.9 8.3 26.2 3.9 14.9 6.3 30.1c0.3 2.1 3.4 1.2 3.1-0.9-3-19.6-8.1-39-15.1-57.6q-2.5-6.8-5.4-13.4c-1.9-4.5-4-8.9-5.1-13.7-0.5-2-1.3-5 0.9-6.3 1.5-1 3.7-0.6 5.2 0.1 3.8 1.8 5.5 6.8 7.7 10.1 0.7 1.1 2.6 1 3-0.4 0.8-3.6 1.6-7.5 4.1-10.3 2.2-2.4 6.4-4.2 9.2-1.7 2.4 2.1 2.3 5.9 2 8.8-0.4 4-1.4 8.1-2.5 12-2.2 7.9-5.3 15.6-8.1 23.3-2.7 7.5-5.2 15.1-7.8 22.6-2.9 8.7-5.8 17.3-9 25.9-0.7 1.9 2.4 2.8 3.1 0.8z"/>
							</g>
						</g>
					</g>
				</g>
			</g>
		</g>
	</g>
</svg>