<svg version="1.2" xmlns="http://www.w3.org/2000/svg" viewBox="0 0 688 688" width="688" height="688">
	<title>DONT WORRY</title>
	<defs>
		<clipPath clipPathUnits="userSpaceOnUse" id="cp1">
			<path d="m1403.58 364.1h-1462.31v-916.98h1462.31z"/>
		</clipPath>
	</defs>
	<style>
		.s0 { fill: #a6b769 } 
		.s1 { fill: #fcfcfc } 
		.s2 { fill: #000000 } 
	</style>
	<g id="Object">
		<path id="&lt;Compound Path&gt;" fill-rule="evenodd" class="s0" d="m628.1 546.4c-48.6 60-120.4 100.3-195.9 121.9-78 22.2-166.2 27.3-245.4 0-168.4-58.1-199.9-251.1-181.9-398.4 10.1-82.5 41.9-163.3 107.8-217.4 63.7-52.4 144.7-61.4 226.5-42.6 40.9 9.4 80.8 23.6 120.3 38.1 40.1 14.7 81.8 31.5 112.1 62.4 11.6 12 20.3 25.4 27.2 39.8 43.4 56.8 75.7 123.2 85.1 192.7 9.9 73.7-9.4 146.2-55.8 203.5zm-327.7-240.1c-23.6-2.9-47.4-4-70.8-8.5-9.7-1.9-14.3 11.9-6.3 15.4-4.6 0.6-8.3 5.6-6.8 10.3 1.5 4.9 4.5 8.1 8.2 10.4-1.4 2-1.8 4.8-1.4 7.1 1.7 9.1 8.9 14 17.4 15.5-0.1 5 3.9 10.4 10.3 8.8 8.6-2.2 16.6-3.3 23.1-9.9 1.2-1.2 1.8-2.6 2.1-4.1 4.3-0.8 8.2-2.7 11.5-6.6 2.8-3.3 3.5-8.5 0-11.7-1.9-1.7-4-3.1-6.2-4.3 7.9-1.2 15.7-3.4 23-7 8.2-4.1 3.1-14.6-4.1-15.4z"/>
		<path id="&lt;Compound Path&gt;" class="s1" d="m222.6 300.3c22.1 7.6 46.6 6.2 68.3 0 21-6 41-17.2 54.5-33.9 12.9-16 18.3-36.2 15.5-56.7-2.6-19.4-11.6-37.9-23.7-53.7-1.9-4-4.3-7.8-7.5-11.1-8.5-8.6-20.1-13.3-31.2-17.4-11-4-22.1-8-33.5-10.6-22.7-5.3-45.2-2.8-63 11.8-18.3 15.1-27.2 37.6-30 60.6-5 41.1 3.8 94.8 50.6 111z"/>
		<g id="&lt;Group&gt;">
			<path id="&lt;Compound Path&gt;" fill-rule="evenodd" class="s2" d="m51 425.1v-60.5h12.5q13.6 0 19.7 2.1 8.9 3.1 13.8 10.7 5 7.7 5 18.2 0 9.1-4 16-3.9 6.9-10.2 10.2-6.2 3.3-17.6 3.3zm5.8-5.7h7q12.6 0 17.4-1.6 6.9-2.2 10.8-8 3.9-5.8 3.9-14.1 0-8.8-4.2-15-4.3-6.2-11.9-8.5-5.6-1.7-18.7-1.7h-4.3z"/>
			<path id="&lt;Compound Path&gt;" fill-rule="evenodd" class="s2" d="m142.5 363q13.8 0 23 9.2 9.3 9.2 9.3 22.6 0 13.3-9.2 22.6-9.3 9.2-22.6 9.2-13.4 0-22.7-9.2-9.3-9.2-9.3-22.3 0-8.7 4.2-16.2 4.3-7.4 11.6-11.6 7.2-4.3 15.7-4.3zm0.3 5.9q-6.7 0-12.7 3.5-6.1 3.5-9.4 9.5-3.4 5.9-3.4 13.2 0 10.8 7.5 18.2 7.4 7.4 18 7.4 7 0 13-3.4 6-3.4 9.4-9.3 3.3-6 3.3-13.2 0-7.2-3.3-13-3.4-5.9-9.5-9.4-6.1-3.5-12.9-3.5z"/>
			<path id="&lt;Compound Path&gt;" class="s2" d="m187 425.1v-60.5h1.3l40.3 46.4v-46.4h5.9v60.5h-1.3l-40-45.8v45.8z"/>
			<path id="&lt;Compound Path&gt;" class="s2" d="m256.2 385.6l-3.2-1.8q1.6-3.1 2.1-4.9 0.6-1.7 0.8-4.5h-3.6v-11.4h7.4v7.1q0 5.3-0.7 8.4-0.7 3-2.8 7.1z"/>
			<path id="&lt;Compound Path&gt;" class="s2" d="m272.9 370.5v-5.9h33.1v5.9h-13.5v54.6h-6.1v-54.6z"/>
			<path id="&lt;Compound Path&gt;" class="s2" d="m334.7 364.6h6.2l12.3 43.6 17.4-43.6h1.2l17.2 43.6 12.6-43.6h6.1l-17.4 60.5h-1.1l-17.9-45.8-18.4 45.8h-1.1z"/>
			<path id="&lt;Compound Path&gt;" fill-rule="evenodd" class="s2" d="m447.8 363q13.7 0 23 9.2 9.3 9.2 9.3 22.6 0 13.3-9.3 22.6-9.2 9.2-22.5 9.2-13.5 0-22.7-9.2-9.3-9.2-9.3-22.3 0-8.7 4.2-16.2 4.2-7.4 11.5-11.6 7.3-4.3 15.8-4.3zm0.3 5.9q-6.8 0-12.8 3.5-6 3.5-9.4 9.5-3.4 5.9-3.4 13.2 0 10.8 7.5 18.2 7.5 7.4 18.1 7.4 7 0 13-3.4 6-3.4 9.4-9.3 3.3-6 3.3-13.2 0-7.2-3.3-13-3.4-5.9-9.5-9.4-6.1-3.5-12.9-3.5z"/>
			<path id="&lt;Compound Path&gt;" fill-rule="evenodd" class="s2" d="m492.5 364.6h12.1q10.1 0 13.7 0.8 5.3 1.2 8.7 5.3 3.4 4 3.4 10 0 4.9-2.3 8.7-2.4 3.7-6.7 5.6-4.3 2-11.9 2l21.8 28.1h-7.5l-21.8-28.1h-3.4v28.1h-6.1zm6.1 5.9v20.6l10.4 0.1q6.1 0 9-1.2 2.9-1.1 4.5-3.7 1.6-2.5 1.6-5.6 0-3.1-1.6-5.5-1.7-2.5-4.3-3.6-2.7-1.1-8.9-1.1z"/>
			<path id="&lt;Compound Path&gt;" fill-rule="evenodd" class="s2" d="m543.7 364.6h12q10.1 0 13.7 0.8 5.4 1.2 8.8 5.3 3.3 4 3.3 10 0 4.9-2.3 8.7-2.3 3.7-6.6 5.6-4.3 2-12 2l21.8 28.1h-7.5l-21.7-28.1h-3.5v28.1h-6zm6 5.9v20.6l10.5 0.1q6 0 8.9-1.2 2.9-1.1 4.6-3.7 1.6-2.5 1.6-5.6 0-3.1-1.7-5.5-1.6-2.5-4.3-3.6-2.7-1.1-8.9-1.1z"/>
			<path id="&lt;Compound Path&gt;" class="s2" d="m589.7 364.6h7l15.5 24.9 15.2-24.9h7l-19.2 31.6v28.9h-5.9v-28.9z"/>
		</g>
	</g>
	<g id="Object">
		<g id="&lt;Clip Group&gt;" clip-path="url(#cp1)">
			<g id="&lt;Group&gt;">
				<g id="&lt;Group&gt;">
					<g id="&lt;Group&gt;">
						<path id="&lt;Path&gt;" class="s2" d="m267.5 347.6c-6.1-0.1-12.1 0.2-18.2-0.2-4.7-0.3-10.2-0.6-14.2-3.2-1.8-1.2-3.6-2.9-4.3-4.9-0.6-2-0.2-4.2-0.1-6.2 0.4-5.8 0.4-11.7 0.5-17.6 0.2-5 0.5-10.2-1.9-14.7-2.1-4-5.6-6.9-9.1-9.5-8.2-6-15.7-12.1-21.8-20.3-11.9-15.8-18.2-35.5-17.2-55.3 1.1-20.5 9.6-40.6 23.6-55.7 13.9-15.1 33.1-25 53.3-28.5 21-3.6 43.8-0.1 60.5 13.8 31.2 25.9 37.1 74.4 20.4 109.9-8.4 18.1-23 33.2-41.2 41.5-4.3 2-9.1 3-13.1 5.4-4.2 2.4-5.4 6.3-5 11 0.5 6.2 1.1 12.4 1.5 18.7 0.3 4.3 1.6 11.8-2.7 14.5-3.1 2.1-7.5 1.3-11 1.3-2.1-0.1-2.1 3.2 0 3.2 3.8 0.1 7.8 0.5 11.4-1 4.2-1.8 5.6-6 5.8-10.3 0.4-6.1-0.5-12.5-1.1-18.6-0.2-3.2-0.8-6.4-0.8-9.5-0.1-3.3 1.3-5.4 4.1-6.9 4.4-2.3 9.4-3.5 13.9-5.6 4.7-2.3 9.1-5 13.2-8.1 8.2-6 15.2-13.4 20.9-21.7 23.4-34.5 22.2-85.3-5.1-117.3-6.1-7.2-13.6-13.3-22.1-17.5-10.4-5.1-22.1-7.3-33.8-7.3-21.4-0.1-42.8 7.1-59.8 20.1-16.8 12.9-28.9 31.5-33.8 52.2-4.7 20.2-2.3 41.4 7 59.9 4.5 9.1 10.6 17.5 18 24.5 3.7 3.5 7.6 6.4 11.7 9.3 4.1 3 8.6 6.3 10.3 11.3 0.9 2.8 0.8 5.8 0.8 8.7q-0.2 5-0.3 10c-0.1 3.1-0.1 6.3-0.3 9.4-0.1 2.1-0.4 4.1-0.2 6.2 1.4 9.6 13.3 11.4 21 12 6.4 0.5 12.8 0.2 19.2 0.2 2.1 0.1 2.1-3.2 0-3.2z"/>
						<path id="&lt;Path&gt;" class="s2" d="m230.5 310.8c16.4-2.6 33.1-1.9 49.3 2.2 2 0.5 2.8-2.7 0.8-3.2-16.7-4.1-34-4.9-51-2.2-2 0.4-1.2 3.5 0.9 3.2z"/>
						<path id="&lt;Path&gt;" class="s2" d="m230 321.9q26 2.6 52.2 2.5c2.1 0 2.1-3.3 0-3.3q-26.2 0.2-52.2-2.4c-2.1-0.2-2 3 0 3.2z"/>
						<path id="&lt;Path&gt;" class="s2" d="m231.4 334.2q25.7 2 51.6 1.2c2-0.1 2.1-3.3 0-3.3q-25.9 0.8-51.6-1.1c-2.1-0.2-2.1 3.1 0 3.2z"/>
						<path id="&lt;Path&gt;" class="s2" d="m241.1 349.7c1.3 3.6 0.9 7.6 2.8 10.9 2.1 3.8 6.4 3.7 10.3 3.9 2.7 0 5.3 0.2 7.9 0.2 1.9 0 3.8-0.1 5.4-1.1 4.1-2.5 4.4-8.6 5-12.8 0.3-2.1-2.8-3-3.1-0.9-0.4 2.1-0.6 4.2-1.1 6.2-0.4 1.7-1 4-2.7 4.8-1.5 0.7-3.3 0.6-4.9 0.5-2.2 0-4.3-0.1-6.5-0.2-3.1-0.1-6.6 0.3-7.9-3.1-1.2-2.9-1-6.3-2.1-9.3-0.7-1.9-3.8-1.1-3.1 0.9z"/>
						<path id="&lt;Path&gt;" class="s2" d="m252.1 307.8c6.6-17.7 12.2-35.7 18.7-53.5 3.4-9.1 6.8-18.2 8.4-27.9 1-5.8 1.2-14.7-6.3-16.3-9.3-1.9-13.3 8.4-15 15.4q1.5-0.2 3-0.4c-3.5-5.2-6.3-12.6-13.8-12.3-2.6 0.1-5.2 1.4-6.1 4-1.3 3.3 0.1 7.5 1.2 10.8 2.8 8.3 6.9 16.3 10 24.6q4.7 12.9 8.3 26.2 3.9 14.9 6.3 30.1c0.3 2.1 3.4 1.2 3.1-0.9-3-19.6-8.1-39-15.1-57.6q-2.5-6.8-5.4-13.4c-1.9-4.5-4-8.9-5.1-13.7-0.5-2-1.3-5 0.9-6.3 1.5-1 3.7-0.6 5.2 0.1 3.8 1.8 5.5 6.8 7.7 10.1 0.7 1.1 2.6 1 3-0.4 0.8-3.6 1.6-7.5 4.1-10.3 2.2-2.4 6.4-4.2 9.2-1.7 2.4 2.1 2.3 5.9 2 8.8-0.4 4-1.4 8.1-2.5 12-2.2 7.9-5.3 15.6-8.1 23.3-2.7 7.5-5.2 15.1-7.8 22.6-2.9 8.7-5.8 17.3-9 25.9-0.7 1.9 2.4 2.8 3.1 0.8z"/>
					</g>
				</g>
			</g>
		</g>
	</g>
</svg>